<svg xmlns="http://www.w3.org/2000/svg" width="32.371" height="34.505" viewBox="0 0 32.371 34.505"><g transform="translate(-15.782 0.255)"><g transform="translate(16.032 -0.001)"><path d="M47.622,7.5,32.184.049a.5.5,0,0,0-.433,0L16.313,7.5a.5.5,0,0,0-.281.449v18.1a.5.5,0,0,0,.281.449L31.751,33.95a.5.5,0,0,0,.433,0L47.622,26.5a.5.5,0,0,0,.281-.449V7.95A.5.5,0,0,0,47.622,7.5ZM31.968,1.051l14.292,6.9-4.143,2a.494.494,0,0,0-.084-.053L27.837,3.044ZM26.713,3.608,40.984,10.5l-2.923,1.411L23.8,5.022Zm14.605,7.834v5.216l-2.73,1.318V12.76Zm5.589,14.295L32.466,32.708V15.715l3.445-1.663a.5.5,0,0,0-.433-.9l-3.51,1.694-1.381-.667a.5.5,0,1,0-.433.9l1.316.635V32.708L17.028,25.737V8.744l11,5.309a.5.5,0,0,0,.433-.9L17.676,7.95l4.948-2.389,14.961,7.223.007.009V18.77a.5.5,0,0,0,.715.449l3.726-1.8a.5.5,0,0,0,.281-.449v-6.01l4.593-2.217Z" transform="translate(-16.032 0.001)"/></g><g transform="translate(18.158 22.662)"><g transform="translate(0)"><path d="M51.028,342.4l-2.265-1.094a.5.5,0,0,0-.433.9L50.6,343.3a.5.5,0,0,0,.433-.9Z" transform="translate(-48.048 -341.261)"/></g></g><g transform="translate(18.161 20.3)"><path d="M53.158,307.839l-4.347-2.1a.5.5,0,1,0-.433.9l4.347,2.1a.5.5,0,0,0,.433-.9Z" transform="translate(-48.096 -305.69)"/></g></g></svg>