<svg xmlns="http://www.w3.org/2000/svg" width="19.764" height="19.723" viewBox="0 0 19.764 19.723"><g transform="translate(0 0)"><path d="M19.06,4.015H17.146V3.162a.562.562,0,1,0-1.123,0V6.1a1.094,1.094,0,0,0-.562.957A1.124,1.124,0,1,0,17.146,6.1V5.138H19.06a2.073,2.073,0,0,1,2.08,2.08V8.945H3.623V7.219A2.087,2.087,0,0,1,5.7,5.138h.978V4.015H5.7a3.205,3.205,0,0,0-3.2,3.2v11.9a3.205,3.205,0,0,0,3.2,3.2H19.06a3.205,3.205,0,0,0,3.2-3.2V7.219A3.205,3.205,0,0,0,19.06,4.015Zm2.08,15.1a2.073,2.073,0,0,1-2.08,2.08H5.7a2.073,2.073,0,0,1-2.08-2.08v-9.05H21.162v9.05Z" transform="translate(-2.5 -2.6)" fill="#fff"/><path d="M20.007,51.513h.936a1.207,1.207,0,0,0,0-2.413h-.936A1.208,1.208,0,0,0,18.8,50.307,1.221,1.221,0,0,0,20.007,51.513Z" transform="translate(-15.409 -39.426)" fill="#fff"/><path d="M43.207,51.513h.936a1.207,1.207,0,1,0,0-2.413h-.936a1.207,1.207,0,0,0,0,2.413Z" transform="translate(-33.782 -39.426)" fill="#fff"/><path d="M66.407,51.513h.936a1.207,1.207,0,1,0,0-2.413h-.936a1.207,1.207,0,0,0,0,2.413Z" transform="translate(-52.156 -39.426)" fill="#fff"/><path d="M20.007,72.013h.936a1.207,1.207,0,1,0,0-2.413h-.936A1.208,1.208,0,0,0,18.8,70.807,1.221,1.221,0,0,0,20.007,72.013Z" transform="translate(-15.409 -55.661)" fill="#fff"/><path d="M43.207,72.013h.936a1.207,1.207,0,1,0,0-2.413h-.936a1.207,1.207,0,0,0,0,2.413Z" transform="translate(-33.782 -55.661)" fill="#fff"/><path d="M66.407,72.013h.936a1.207,1.207,0,1,0,0-2.413h-.936a1.207,1.207,0,0,0,0,2.413Z" transform="translate(-52.156 -55.661)" fill="#fff"/><path d="M25.523,8.155a1.113,1.113,0,0,0,.562-2.08V5.117h6.366v-1.1H26.085V3.162a.562.562,0,1,0-1.123,0V6.1a1.094,1.094,0,0,0-.562.957A1.114,1.114,0,0,0,25.523,8.155Z" transform="translate(-19.844 -2.6)" fill="#fff"/></g></svg>