<svg xmlns="http://www.w3.org/2000/svg" width="25.166" height="21.515" viewBox="0 0 25.166 21.515"><g transform="translate(-5.091 -13.107)"><path d="M27.455,16.133H24.71L24.3,14.865a2.4,2.4,0,0,0-2.729-1.758h-7.8a2.4,2.4,0,0,0-2.726,1.748l-.409,1.279H7.893a2.805,2.805,0,0,0-2.8,2.8V31.82a2.805,2.805,0,0,0,2.8,2.8H27.455a2.805,2.805,0,0,0,2.8-2.8V18.935A2.805,2.805,0,0,0,27.455,16.133Zm.981,15.687a.982.982,0,0,1-.981.981H7.893a.982.982,0,0,1-.981-.981V18.935a.982.982,0,0,1,.981-.981H11.3a.911.911,0,0,0,.867-.633l.615-1.922c.131-.426.145-.471.988-.471h7.8c.844,0,.858.045.991.481l.612,1.911a.911.911,0,0,0,.867.633h3.41a.982.982,0,0,1,.981.981V31.82ZM17.674,18.883a6.405,6.405,0,1,0,6.405,6.405A6.412,6.412,0,0,0,17.674,18.883Zm0,10.989a4.584,4.584,0,1,1,4.584-4.584A4.589,4.589,0,0,1,17.674,29.872Z" fill="#fff"/></g></svg>