<svg xmlns="http://www.w3.org/2000/svg" width="12.25" height="12.25" viewBox="0 0 12.25 12.25"><g transform="translate(0.125 0.125)"><g transform="translate(2.849 1.508)"><path class="a" d="M130.375,64.46a.452.452,0,0,0-.639,0l-5.426,5.411-1.958-2.126a.452.452,0,0,0-.665.613l2.276,2.472a.452.452,0,0,0,.323.146h.01a.453.453,0,0,0,.319-.132l5.759-5.744A.452.452,0,0,0,130.375,64.46Z" transform="translate(-121.568 -64.327)"/></g><path class="a" d="M11.548,5.548A.452.452,0,0,0,11.1,6,5.1,5.1,0,1,1,6,.9.452.452,0,1,0,6,0a6,6,0,1,0,6,6A.452.452,0,0,0,11.548,5.548Z"/></g></svg>