<svg xmlns="http://www.w3.org/2000/svg" width="20.925" height="20.925" viewBox="0 0 20.925 20.925">
  <g id="Grupo_261" data-name="Grupo 261" transform="translate(-300.038 -276)">
    <g id="Caminho_107" data-name="Caminho 107" transform="translate(300.038 276)" fill="none">
      <path d="M10.462,0A10.462,10.462,0,1,1,0,10.462,10.462,10.462,0,0,1,10.462,0Z" stroke="none"/>
      <path d="M 10.4622802734375 1 C 5.244760513305664 1 1 5.244760513305664 1 10.4622802734375 C 1 15.67980003356934 5.244760513305664 19.924560546875 10.4622802734375 19.924560546875 C 15.67980003356934 19.924560546875 19.924560546875 15.67980003356934 19.924560546875 10.4622802734375 C 19.924560546875 5.244760513305664 15.67980003356934 1 10.4622802734375 1 M 10.4622802734375 0 C 16.24044036865234 0 20.924560546875 4.684120178222656 20.924560546875 10.4622802734375 C 20.924560546875 16.24044036865234 16.24044036865234 20.924560546875 10.4622802734375 20.924560546875 C 4.684120178222656 20.924560546875 0 16.24044036865234 0 10.4622802734375 C 0 4.684120178222656 4.684120178222656 0 10.4622802734375 0 Z" stroke="none" fill="#707070"/>
    </g>
    <line id="Linha_18" data-name="Linha 18" x1="5.655" y2="5.655" transform="translate(310.428 282.447) rotate(45)" fill="none" stroke="#5a5a5a" stroke-linecap="round" stroke-linejoin="round" stroke-width="1"/>
  </g>
</svg>
