<svg xmlns="http://www.w3.org/2000/svg" width="20.544" height="20.544" viewBox="0 0 20.544 20.544"><g transform="translate(0)"><path d="M18.618,0H1.926A1.926,1.926,0,0,0,0,1.926V18.618a1.926,1.926,0,0,0,1.926,1.926H18.618a1.926,1.926,0,0,0,1.926-1.926V1.926A1.926,1.926,0,0,0,18.618,0ZM1.284,1.926a.642.642,0,0,1,.642-.642h7.7v12.84H1.284ZM19.26,18.618a.642.642,0,0,1-.642.642H1.926a.642.642,0,0,1-.642-.642v-3.21H19.26Zm0-4.494H10.914V1.284h7.7a.642.642,0,0,1,.642.642Z" transform="translate(0)" fill="#fff"/><rect width="1" height="2" transform="translate(10.069 15.981)" fill="#fff"/><rect width="1" height="1" transform="translate(13.069 6.981)" fill="#fff"/><rect height="1" transform="translate(7.069 6.981)" fill="#fff"/></g></svg>