<svg xmlns="http://www.w3.org/2000/svg" width="19.723" height="21.773" viewBox="0 0 19.723 21.773"><g transform="translate(0)"><g transform="translate(0 0)"><path d="M38.191,20.784h4.05l.47-1.575a2.743,2.743,0,0,1-.45-1.739,3.128,3.128,0,0,1,.389-1.37h-.327a2.2,2.2,0,0,1-2.107,1.616A2.24,2.24,0,0,1,38.089,16.1h-.327a3.128,3.128,0,0,1,.389,1.37,2.709,2.709,0,0,1-.45,1.739Z" transform="translate(-31.175 -13.83)" fill="none"/><path d="M22.414,47,18.2,54.548H31.209L27,47Z" transform="translate(-15.664 -38.409)" fill="none"/><path d="M18.032,12.343,18.809,9.7a.548.548,0,0,0-.1-.47,2.171,2.171,0,0,1-.47-1.575,2.886,2.886,0,0,1,.757-1.8.435.435,0,0,0,.143-.307V5.511a.571.571,0,0,0-.123-.368A.534.534,0,0,0,18.666,5H16.948a.49.49,0,0,0-.491.45,1.655,1.655,0,0,1-1.616,1.493A1.626,1.626,0,0,1,13.225,5.45.5.5,0,0,0,12.734,5H11.016a.437.437,0,0,0-.348.164.477.477,0,0,0-.123.368v.041a.435.435,0,0,0,.143.307,2.778,2.778,0,0,1,.757,1.8,2.171,2.171,0,0,1-.47,1.575.445.445,0,0,0-.1.47l.8,2.618L5.861,22.693a.521.521,0,0,0,0,.491.491.491,0,0,0,.409.245h17.1a.45.45,0,0,0,.409-.245.521.521,0,0,0,0-.491ZM12.407,7.6a4.09,4.09,0,0,0-.47-1.636h.389a2.607,2.607,0,0,0,5.032,0h.389a4,4,0,0,0-.47,1.636,3.182,3.182,0,0,0,.552,2.066l-.573,1.882H12.427l-.573-1.861A3.241,3.241,0,0,0,12.407,7.6Zm-5.3,14.85,5.011-8.959h5.42l5.011,8.959Z" transform="translate(-5.8 -5)" fill="#fff"/></g></g><g transform="translate(9.039 11.505)"><circle cx="5" cy="5" r="5" transform="translate(0.029 0.268)" fill="#212121"/><g transform="translate(0.822 0)"><path d="M13.931,18.861a4.931,4.931,0,1,1,4.931-4.931,4.931,4.931,0,0,1-4.931,4.931Zm0-9.14a4.209,4.209,0,1,0,4.209,4.209A4.209,4.209,0,0,0,13.931,9.722Z" transform="translate(-9 -9)" fill="#fff"/><path d="M35.775,47.686H32.343a.343.343,0,1,1,0-.686h3.431a.343.343,0,1,1,0,.686Z" transform="translate(-29.128 -42.412)" fill="#fff"/><path d="M47.343,36.118A.343.343,0,0,1,47,35.775V32.343a.343.343,0,1,1,.686,0v3.431A.343.343,0,0,1,47.343,36.118Z" transform="translate(-42.412 -29.128)" fill="#fff"/></g></g></svg>