<svg xmlns="http://www.w3.org/2000/svg"  x="0px" y="0px" viewBox="0 0 297 297" style="enable-background:new 0 0 297 297;" xml:space="preserve"><path d="M296.287,144.916c-0.36-0.869-9.072-21.511-31.772-42.015C243.777,84.168,206.814,61.837,148.5,61.837c-24.88,0-45.841,4.029-63.325,10.089L50.777,37.527c-3.66-3.658-9.59-3.658-13.25,0c-3.659,3.659-3.659,9.591,0,13.25l28.951,28.951c-14.429,7.13-25.721,15.461-34.24,23.184C9.6,123.436,1.041,144.106,0.688,144.975c-0.909,2.24-0.918,4.744-0.024,6.99c0.347,0.871,8.75,21.569,31.327,42.112c20.599,18.744,57.533,41.087,116.509,41.087c24.73,0,45.647-4.113,63.133-10.281l34.59,34.59c1.83,1.829,4.227,2.744,6.625,2.744c2.398,0,4.795-0.915,6.625-2.744c3.659-3.659,3.659-9.591,0-13.25l-29.22-29.22c14.124-7.06,25.278-15.267,33.768-22.88c22.823-20.466,31.843-41.054,32.215-41.92C297.237,149.881,297.254,147.253,296.287,144.916z M45.299,180.848c-14.511-13.007-22.379-26.193-25.55-32.315c3.216-6.126,11.183-19.332,25.764-32.359c10.402-9.294,22.08-16.777,34.965-22.445l0.505,0.505c-11.97,14.863-19.147,33.741-19.147,54.267c0,21.131,7.605,40.515,20.217,55.571C68.425,198.32,56.148,190.574,45.299,180.848z M148.5,216.427c-37.454,0-67.926-30.471-67.926-67.926c0-15.356,5.128-29.533,13.753-40.922l19.852,19.852c-3.78,6.135-5.966,13.351-5.966,21.07c0,22.214,18.073,40.287,40.287,40.287c7.719,0,14.936-2.186,21.07-5.966l19.852,19.852C178.033,211.298,163.856,216.427,148.5,216.427z M155.594,168.844c-2.223,0.777-4.609,1.205-7.093,1.205c-11.882,0-21.549-9.666-21.549-21.549c0-2.485,0.428-4.87,1.205-7.093L155.594,168.844z M141.407,128.157c2.223-0.777,4.609-1.205,7.093-1.205c11.882,0,21.549,9.666,21.549,21.549c0,2.485-0.428,4.87-1.205,7.093L141.407,128.157z M202.673,189.423l-19.852-19.852c3.78-6.135,5.967-13.351,5.967-21.07c0-22.214-18.073-40.287-40.287-40.287c-7.719,0-14.936,2.186-21.07,5.966l-19.852-19.852c11.39-8.625,25.566-13.753,40.922-13.753c37.453,0,67.925,30.471,67.925,67.926C216.426,163.857,211.298,178.034,202.673,189.423z M216.164,202.915l-0.148-0.148c11.97-14.863,19.147-33.741,19.147-54.267c0-20.964-7.484-40.212-19.918-55.217c13.277,5.723,25.308,13.365,36.026,22.91c14.541,12.949,22.596,26.074,25.899,32.251C271.74,158.349,253.814,186.088,216.164,202.915z"/></svg>