<svg xmlns="http://www.w3.org/2000/svg" width="28.083" height="23.334" viewBox="0 0 28.083 23.334"><g transform="translate(0.003 12.603)"><path d="M91.8,547.43c.622-.582,1.248-1.165,1.87-1.747q1.478-1.378,2.959-2.759c.23-.213.459-.426.686-.642H95.9l1.947,1.787q1.543,1.418,3.088,2.835c.236.22.476.436.712.656a1,1,0,0,0,1.411-1.411l-1.947-1.787q-1.543-1.418-3.088-2.835c-.236-.22-.476-.436-.712-.656a1.02,1.02,0,0,0-1.411,0c-.622.582-1.248,1.165-1.87,1.747q-1.478,1.378-2.959,2.759c-.23.213-.459.426-.686.642a1,1,0,0,0,0,1.411,1.02,1.02,0,0,0,1.411,0Z" transform="translate(-90.1 -540.587)" fill="#fff"/></g><g transform="translate(9.012 9.896)"><path d="M375.763,466.814l-2.373-2.463q-1.892-1.962-3.781-3.924c-.29-.3-.576-.6-.865-.9a1.017,1.017,0,0,0-1.411,0q-1.053.968-2.11,1.94-1.682,1.543-3.365,3.088c-.256.236-.513.473-.769.706a1,1,0,0,0,0,1.411,1.017,1.017,0,0,0,1.411,0q1.053-.968,2.11-1.94,1.682-1.543,3.365-3.088c.256-.236.513-.473.769-.706h-1.411l2.373,2.463q1.892,1.962,3.781,3.924c.29.3.576.6.865.9a1.007,1.007,0,0,0,1.411,0,1.02,1.02,0,0,0,0-1.411Z" transform="translate(-360.8 -459.244)" fill="#fff"/></g><g transform="translate(7.571 7.075)"><g transform="translate(0)"><path d="M320.415,376.947a1.687,1.687,0,0,1-.01.183c.013-.09.023-.176.037-.266a1.741,1.741,0,0,1-.1.386l.1-.24a1.525,1.525,0,0,1-.123.23c-.06.09-.126.1.053-.063-.03.03-.057.067-.087.1a.7.7,0,0,1-.1.087s.243-.17.063-.053a1.9,1.9,0,0,1-.23.123l.24-.1a1.741,1.741,0,0,1-.386.1l.266-.037a1.684,1.684,0,0,1-.366,0l.266.037a1.741,1.741,0,0,1-.386-.1l.24.1a1.525,1.525,0,0,1-.23-.123c-.09-.06-.1-.126.063.053-.03-.03-.067-.057-.1-.087a.7.7,0,0,1-.087-.1s.17.243.053.063a1.9,1.9,0,0,1-.123-.23l.1.24a1.743,1.743,0,0,1-.1-.386c.013.09.023.176.037.266a1.68,1.68,0,0,1,0-.366c-.013.09-.023.176-.037.266a1.743,1.743,0,0,1,.1-.386l-.1.24a1.526,1.526,0,0,1,.123-.23c.06-.09.126-.1-.053.063.03-.03.057-.067.087-.1a.7.7,0,0,1,.1-.087s-.243.17-.063.053a1.894,1.894,0,0,1,.23-.123l-.24.1a1.743,1.743,0,0,1,.386-.1l-.266.037a1.68,1.68,0,0,1,.366,0l-.266-.037a1.743,1.743,0,0,1,.386.1l-.24-.1a1.522,1.522,0,0,1,.23.123c.09.06.1.126-.063-.053.03.03.067.057.1.087a.7.7,0,0,1,.087.1s-.17-.243-.053-.063a1.9,1.9,0,0,1,.123.23l-.1-.24a1.741,1.741,0,0,1,.1.386c-.013-.09-.023-.176-.037-.266a1.734,1.734,0,0,1,.01.183,1,1,0,0,0,2,0,2.5,2.5,0,0,0-1.687-2.333,2.45,2.45,0,0,0-2.626.722,2.578,2.578,0,0,0-.6,1.471,2.42,2.42,0,0,0,.343,1.4,2.5,2.5,0,0,0,2.646,1.132,2.477,2.477,0,0,0,1.92-2.4,1.01,1.01,0,0,0-1-1A1.024,1.024,0,0,0,320.415,376.947Z" transform="translate(-317.493 -374.487)" fill="#fff"/></g></g><g transform="translate(0 3.788)"><path d="M112.264,292.8a1.69,1.69,0,0,1-.01.183c.013-.09.023-.176.037-.266a1.741,1.741,0,0,1-.1.386l.1-.24a1.525,1.525,0,0,1-.123.23c-.06.09-.126.1.053-.063-.03.03-.057.067-.087.1a.7.7,0,0,1-.1.087s.243-.17.063-.053a1.9,1.9,0,0,1-.23.123l.24-.1a1.7,1.7,0,0,1-.386.1l.266-.037a6.285,6.285,0,0,1-.662.01H94.782c-.769,0-1.538,0-2.306,0a2.024,2.024,0,0,1-.2-.01l.266.037a1.743,1.743,0,0,1-.386-.1l.24.1a1.522,1.522,0,0,1-.23-.123c-.09-.06-.1-.126.063.053-.03-.03-.067-.057-.1-.087a.7.7,0,0,1-.087-.1s.17.243.053.063a1.9,1.9,0,0,1-.123-.23l.1.24a1.7,1.7,0,0,1-.1-.386c.013.09.023.176.037.266a4.785,4.785,0,0,1-.01-.536V279.924c0-.579-.007-1.158,0-1.737a1.94,1.94,0,0,1,.01-.2c-.013.09-.023.176-.037.266a1.742,1.742,0,0,1,.1-.386l-.1.24a1.525,1.525,0,0,1,.123-.23c.06-.09.126-.1-.053.063.03-.03.057-.067.087-.1a.7.7,0,0,1,.1-.087s-.243.17-.063.053a1.9,1.9,0,0,1,.23-.123l-.24.1a1.7,1.7,0,0,1,.386-.1l-.266.037a6.277,6.277,0,0,1,.662-.01h16.544c.769,0,1.538,0,2.306,0a2.024,2.024,0,0,1,.2.01l-.266-.037a1.743,1.743,0,0,1,.386.1l-.24-.1a1.525,1.525,0,0,1,.23.123c.09.06.1.126-.063-.053.03.03.067.057.1.087a.7.7,0,0,1,.087.1s-.17-.243-.053-.063a1.9,1.9,0,0,1,.123.23l-.1-.24a1.7,1.7,0,0,1,.1.386c-.013-.09-.023-.176-.037-.266a4.784,4.784,0,0,1,.01.536v12.453c0,.6-.013,1.195,0,1.794,0,.01,0,.02,0,.027a1,1,0,0,0,2,0V280.769c0-.855,0-1.711,0-2.566a2.488,2.488,0,0,0-2.459-2.479c-.18,0-.356,0-.536,0H93.824a5.156,5.156,0,0,0-2.6.329A2.491,2.491,0,0,0,90,278.18v14.6a2.471,2.471,0,0,0,2.626,2.476h17.033c.706,0,1.414,0,2.12,0a2.493,2.493,0,0,0,2.486-2.456,1,1,0,0,0-2,0Z" transform="translate(-90 -275.711)" fill="#fff"/></g><g transform="translate(4.217)"><path d="M218.707,166.7v-1.255a12.181,12.181,0,0,1,.01-1.3c-.013.09-.023.176-.037.266a1.5,1.5,0,0,1,.106-.379l-.1.24a1.875,1.875,0,0,1,.126-.226c.08-.13-.146.16-.067.083.03-.03.057-.063.087-.093a.833.833,0,0,0,.08-.073c-.156.176-.16.116-.063.053a1.9,1.9,0,0,1,.23-.123l-.24.1a1.668,1.668,0,0,1,.383-.1l-.266.037a6.218,6.218,0,0,1,.659-.01h16.247c.755,0,1.511,0,2.263,0a2.019,2.019,0,0,1,.2.01l-.266-.037a1.668,1.668,0,0,1,.383.1l-.24-.1a2.455,2.455,0,0,1,.226.123c.13.077-.163-.146-.083-.067.03.03.063.057.1.087s.047.053.073.077c.116.116-.136-.21-.053-.067a2.14,2.14,0,0,1,.123.226l-.1-.24a1.7,1.7,0,0,1,.107.379c-.013-.09-.023-.176-.037-.266a4.665,4.665,0,0,1,.01.529v12.31c0,.569.007,1.138,0,1.707a1.892,1.892,0,0,1-.01.2c.013-.09.023-.176.037-.266a1.586,1.586,0,0,1-.107.386l.1-.24a1.9,1.9,0,0,1-.123.23c-.063.093-.123.093.053-.063-.03.027-.06.067-.09.1-.013.013-.09.093-.1.087s.243-.17.063-.053a1.4,1.4,0,0,1-.233.12l.24-.1a1.485,1.485,0,0,1-.343.09l.266-.037a11.61,11.61,0,0,1-1.318.013H235.74a1,1,0,1,0,0,2H238a2.5,2.5,0,0,0,1.9-.769,2.55,2.55,0,0,0,.666-1.714c0-1.115,0-2.226,0-3.341V164.842a3.352,3.352,0,0,0-.31-1.711,2.459,2.459,0,0,0-2.12-1.231h-18.98a2.427,2.427,0,0,0-2.456,2.569v2.22a1,1,0,0,0,2.007.007Z" transform="translate(-216.7 -161.9)" fill="#fff"/></g></svg>