<svg xmlns="http://www.w3.org/2000/svg" width="28.548" height="16.819" viewBox="0 0 28.548 16.819"><path d="M19.5,66.5a2.615,2.615,0,0,0-2.632,2.6v1.141A12.53,12.53,0,0,0,6.925,81.564H6.077a.877.877,0,1,0,0,1.755H32.87a.877.877,0,1,0,0-1.755h-.79a12.563,12.563,0,0,0-9.945-11.319V69.1A2.615,2.615,0,0,0,19.5,66.5Zm-.029,1.784a.856.856,0,0,1,.877.848v.907c-.292-.029-.585-.029-.877-.029s-.585,0-.877.029v-.907A.874.874,0,0,1,19.473,68.284Zm0,3.452a11.185,11.185,0,0,1,2.632.322c3.071,1.784,4.241,5.323,4.387,9.506H8.651A10.787,10.787,0,0,1,19.473,71.736Zm-3.945,1.331a.811.811,0,0,0-.3.073,9.578,9.578,0,0,0-4.212,5.47.751.751,0,0,0,.527.936.765.765,0,0,0,.965-.5,8.2,8.2,0,0,1,3.452-4.563.77.77,0,0,0,.351-1.024A.9.9,0,0,0,15.529,73.066Z" transform="translate(-5.199 -66.5)"/></svg>