<svg xmlns="http://www.w3.org/2000/svg" width="16.595" height="14.847" viewBox="0 0 16.595 14.847"><path d="M7.922,14.1a.929.929,0,0,1-.613-.23c-.64-.56-1.257-1.086-1.8-1.55l0,0A33.507,33.507,0,0,1,1.572,8.622,5.9,5.9,0,0,1,0,4.762,4.952,4.952,0,0,1,1.257,1.38,4.261,4.261,0,0,1,4.426,0a3.985,3.985,0,0,1,2.49.859A5.093,5.093,0,0,1,7.922,1.91,5.094,5.094,0,0,1,8.929.859,3.985,3.985,0,0,1,11.419,0a4.261,4.261,0,0,1,3.169,1.38,4.952,4.952,0,0,1,1.257,3.382,5.9,5.9,0,0,1-1.571,3.86,33.5,33.5,0,0,1-3.933,3.692c-.545.465-1.164.992-1.805,1.553a.93.93,0,0,1-.612.23ZM4.426.928a3.343,3.343,0,0,0-2.487,1.08A4.028,4.028,0,0,0,.928,4.762,4.962,4.962,0,0,0,2.286,8.03a32.973,32.973,0,0,0,3.821,3.578l0,0c.547.466,1.166.994,1.811,1.558.649-.565,1.269-1.094,1.817-1.56A32.982,32.982,0,0,0,13.559,8.03a4.963,4.963,0,0,0,1.358-3.268,4.028,4.028,0,0,0-1.011-2.753A3.343,3.343,0,0,0,11.419.928,3.078,3.078,0,0,0,9.5,1.594,4.5,4.5,0,0,0,8.426,2.833a.586.586,0,0,1-1.006,0A4.5,4.5,0,0,0,6.348,1.594,3.078,3.078,0,0,0,4.426.928Zm0,0" transform="translate(0.375 0.375)"/></svg>
