<svg version="1.1" xmlns="http://www.w3.org/2000/svg" xmlns:xlink="http://www.w3.org/1999/xlink" x="0px" y="0px" viewBox="0 0 687 78" style="enable-background:new 0 0 687 78;" xml:space="preserve"><path d="M24.82,21.2v16.04h5.87c2.06,0,3.57-0.13,4.57-0.38c0.99-0.25,1.84-0.67,2.55-1.24c0.79-0.68,1.42-1.54,1.87-2.59c0.46-1.06,0.68-2.21,0.68-3.43c0-2.74-0.9-4.83-2.7-6.26c-1.79-1.43-4.43-2.14-7.92-2.14H24.82L24.82,21.2z M24.82,39.2v17.41h7.03c3.76,0,6.48-0.64,8.17-1.9c1.69-1.27,2.53-3.3,2.53-6.1c0-3.23-0.99-5.6-2.97-7.12c-1.97-1.53-5.03-2.29-9.18-2.29H24.82L24.82,39.2z M33.18,58.75H20.43V19.1h8.93c4.75,0,8.47,0.95,11.19,2.87c2.7,1.9,4.06,4.5,4.06,7.82c0,2.21-0.65,4.09-1.95,5.63c-1.31,1.55-3.04,2.46-5.19,2.76c3.24,0.63,5.7,1.81,7.38,3.54c1.68,1.73,2.52,3.95,2.52,6.66c0,3.43-1.18,6.02-3.55,7.77C41.42,57.88,37.89,58.75,33.18,58.75L33.18,58.75z M137,39c0-5.68-1.33-10.28-3.98-13.79c-2.64-3.52-6.07-5.28-10.29-5.28c-4.21,0-7.64,1.76-10.29,5.28c-2.65,3.51-3.98,8.11-3.98,13.79c0,5.69,1.33,10.29,3.98,13.78c2.64,3.49,6.07,5.23,10.29,5.23c4.21,0,7.64-1.74,10.29-5.23C135.67,49.29,137,44.69,137,39L137,39z M122.68,59.73c-2.55,0-4.96-0.5-7.24-1.49c-2.27-0.98-4.32-2.44-6.13-4.35c-1.82-1.96-3.21-4.2-4.15-6.72c-0.95-2.52-1.43-5.24-1.43-8.17c0-2.93,0.48-5.65,1.43-8.17c0.94-2.52,2.35-4.77,4.21-6.75c1.75-1.89,3.79-3.34,6.07-4.34c2.3-1,4.71-1.5,7.24-1.5c2.53,0,4.94,0.5,7.22,1.5c2.29,1,4.31,2.45,6.06,4.34c1.86,1.98,3.27,4.23,4.23,6.75c0.96,2.52,1.44,5.24,1.44,8.17c0,2.93-0.48,5.65-1.43,8.17c-0.94,2.52-2.33,4.76-4.15,6.72c-1.83,1.91-3.89,3.37-6.15,4.35C127.64,59.24,125.23,59.73,122.68,59.73L122.68,59.73z M203.65,24.68v34.08h-2.37V19.1h3.64l23.34,30.49V19.1h2.37v40.64L203.65,24.68L203.65,24.68z M296.86,58.75V21.2h-9.85V19.1h24.06v2.11h-9.82v37.55H296.86L296.86,58.75z M371.67,56.62h18.65v2.13h-23.04V19.1h22.41v2.11h-18.02v16.29h16.93v2.01h-16.93V56.62L371.67,56.62z M452.28,23.69v35.06h-2.37V19.1h5.1l12.96,32.29l12.94-32.29h4.8v39.65h-4.09V22.74l-14.74,36.99L452.28,23.69L452.28,23.69z M552.61,40.15v18.6h-4.39V19.1h11.07c4.59,0,8.21,0.94,10.85,2.83c2.65,1.88,3.98,4.44,3.98,7.66c0,3.3-1.2,5.89-3.57,7.75c-2.38,1.87-5.69,2.81-9.92,2.81H552.61L552.61,40.15z M552.61,21.2v16.91H558c3.88,0,6.72-0.69,8.55-2.08c1.83-1.39,2.74-3.53,2.74-6.44c0-2.91-0.95-5.03-2.87-6.38c-1.9-1.35-4.93-2.01-9.08-2.01H552.61L552.61,21.2z M663.15,39c0-5.68-1.33-10.28-3.98-13.79c-2.64-3.52-6.07-5.28-10.29-5.28c-4.21,0-7.64,1.76-10.29,5.28c-2.65,3.51-3.98,8.11-3.98,13.79c0,5.69,1.33,10.29,3.98,13.78c2.64,3.49,6.07,5.23,10.29,5.23c4.21,0,7.64-1.74,10.29-5.23C661.83,49.29,663.15,44.69,663.15,39L663.15,39z M648.83,59.73c-2.55,0-4.96-0.5-7.24-1.49c-2.27-0.98-4.32-2.44-6.13-4.35c-1.82-1.96-3.21-4.2-4.15-6.72c-0.95-2.52-1.43-5.24-1.43-8.17c0-2.93,0.48-5.65,1.43-8.17c0.94-2.52,2.35-4.77,4.21-6.75c1.75-1.89,3.79-3.34,6.07-4.34c2.3-1,4.71-1.5,7.24-1.5c2.53,0,4.94,0.5,7.22,1.5c2.29,1,4.31,2.45,6.06,4.34c1.86,1.98,3.27,4.23,4.23,6.75c0.96,2.52,1.44,5.24,1.44,8.17c0,2.93-0.48,5.65-1.43,8.17c-0.94,2.52-2.33,4.76-4.15,6.72c-1.83,1.91-3.89,3.37-6.15,4.35C653.79,59.24,651.38,59.73,648.83,59.73z"/></svg>