<svg xmlns="http://www.w3.org/2000/svg" width="22" height="22" viewBox="0 0 22 22"><g transform="translate(-8 -8)"><path d="M22.172,18.354a.9.9,0,0,1,0,1.292L18.748,23.07a.914.914,0,1,1-1.292-1.292l1.856-1.861H11.667A3.666,3.666,0,0,1,8,16.25V11.667A3.666,3.666,0,0,1,11.667,8H26.333A3.666,3.666,0,0,1,30,11.667V26.333A3.666,3.666,0,0,1,26.333,30H11.667A3.666,3.666,0,0,1,8,26.333V22.667a.917.917,0,0,1,1.833,0v3.667a1.833,1.833,0,0,0,1.833,1.833H26.333a1.833,1.833,0,0,0,1.833-1.833V11.667a1.833,1.833,0,0,0-1.833-1.833H11.667a1.833,1.833,0,0,0-1.833,1.833V16.25a1.833,1.833,0,0,0,1.833,1.833h7.645l-1.856-1.861a.914.914,0,0,1,1.292-1.292Z"/></g></svg>