<svg xmlns="http://www.w3.org/2000/svg" width="20.544" height="18.429" viewBox="0 0 20.544 18.429"><g transform="translate(0 0)"><path d="M13.523,20.929H7.791a2.77,2.77,0,0,1-2.8-2.8V11.028a2.83,2.83,0,0,1-3.079-.474l-.663-.711A2.646,2.646,0,0,1,.4,7.9a2.752,2.752,0,0,1,.758-1.99A30.05,30.05,0,0,1,4.616,3.069,5.624,5.624,0,0,1,7.08,2.547c.237,0,.474-.047.663-.047h.047a.538.538,0,0,1,.379.142.585.585,0,0,1,.19.379,2.275,2.275,0,0,0,4.548,0,.431.431,0,0,1,.19-.379.538.538,0,0,1,.379-.142h.095a3.586,3.586,0,0,0,.711.047,5.624,5.624,0,0,1,2.464.521,30.094,30.094,0,0,1,3.411,2.8,2.788,2.788,0,0,1-.095,3.98l-.616.663a2.718,2.718,0,0,1-1.942.758h0a3.3,3.3,0,0,1-1.184-.237v7.106A2.8,2.8,0,0,1,13.523,20.929ZM5.469,8.517h0a.526.526,0,0,1,.521.521v9.144a1.749,1.749,0,0,0,1.753,1.753h5.733a1.749,1.749,0,0,0,1.753-1.753V8.991a.526.526,0,0,1,.521-.521h0a.526.526,0,0,1,.521.521v.853A1.8,1.8,0,0,0,18.64,9.8l.616-.663a1.748,1.748,0,0,0,.095-2.511,31.465,31.465,0,0,0-3.174-2.606,5.137,5.137,0,0,0-1.99-.379H13.9a3.257,3.257,0,0,1-3.222,2.7,3.3,3.3,0,0,1-3.222-2.7H7.175a5.717,5.717,0,0,0-2.132.379A32.736,32.736,0,0,0,1.821,6.669,1.641,1.641,0,0,0,1.395,7.9a1.769,1.769,0,0,0,.569,1.232l.663.711a1.683,1.683,0,0,0,1.184.474A1.819,1.819,0,0,0,5,9.891V9.038A.462.462,0,0,1,5.469,8.517Z" transform="translate(-0.4 -2.5)" fill="#fff"/></g></svg>