<svg xmlns="http://www.w3.org/2000/svg" width="23.639" height="29.651" viewBox="0 0 23.639 29.651"><path d="M75.831,23a4.49,4.49,0,0,1-1.365-1.858c-1.176-2.488-1.423-5.994-1.423-8.5,0-.011,0-.022,0-.033a8.2,8.2,0,0,0-4.827-7.437V3.22A3.221,3.221,0,0,0,65,0h-.266a3.221,3.221,0,0,0-3.214,3.22V5.176a8.2,8.2,0,0,0-4.828,7.47c0,2.5-.247,6.008-1.423,8.5A4.49,4.49,0,0,1,53.906,23a.823.823,0,0,0-.452.936.861.861,0,0,0,.849.662h6.206a4.359,4.359,0,0,0,8.718,0h6.206a.861.861,0,0,0,.849-.662A.823.823,0,0,0,75.831,23ZM63.215,3.22A1.524,1.524,0,0,1,64.735,1.7H65A1.524,1.524,0,0,1,66.523,3.22V4.626a8.2,8.2,0,0,0-3.308,0V3.22Zm1.654,23.986A2.672,2.672,0,0,1,62.2,24.6h5.331A2.672,2.672,0,0,1,64.869,27.205Zm3.409-4.3H56.233a8.875,8.875,0,0,0,.444-.779c1.135-2.238,1.71-5.426,1.71-9.477a6.481,6.481,0,1,1,12.963,0c0,.01,0,.021,0,.031,0,4.034.579,7.211,1.71,9.443a8.879,8.879,0,0,0,.444.779Z" transform="translate(-53.049 0.375)" fill="#707070" stroke="#fff" stroke-width="0.75"/></svg>