<svg xmlns="http://www.w3.org/2000/svg" width="21.094" height="21.094" viewBox="0 0 21.094 21.094"><path d="M16.574,12.054a4.505,4.505,0,0,0-3.636,1.86L8.824,11.856a4.459,4.459,0,0,0,.216-1.309,4.459,4.459,0,0,0-.216-1.309L12.938,7.18a4.5,4.5,0,1,0-.884-2.66,4.458,4.458,0,0,0,.216,1.309L8.156,7.887a4.52,4.52,0,1,0,0,5.32l4.114,2.057a4.458,4.458,0,0,0-.216,1.309,4.52,4.52,0,1,0,4.52-4.52Zm0-10.547A3.013,3.013,0,1,1,13.56,4.52,3.017,3.017,0,0,1,16.574,1.507ZM4.52,13.56a3.013,3.013,0,1,1,3.013-3.013A3.017,3.017,0,0,1,4.52,13.56Zm12.054,6.027a3.013,3.013,0,1,1,3.013-3.013A3.017,3.017,0,0,1,16.574,19.587Z" transform="translate(0)"/></svg>