<svg xmlns="http://www.w3.org/2000/svg" width="37" height="37" viewBox="0 0 37 37"><path d="M119.819,224.2a.8.8,0,0,0-1.136.063,8.948,8.948,0,0,1-13.28,0,.8.8,0,0,0-1.2,1.073,10.557,10.557,0,0,0,15.677,0A.8.8,0,0,0,119.819,224.2Z" transform="translate(-93.543 -201.478)" fill="#5a5a5a"/><path d="M18.5,0A18.5,18.5,0,1,0,37,18.5,18.521,18.521,0,0,0,18.5,0Zm0,35.391A16.891,16.891,0,1,1,35.391,18.5,16.91,16.91,0,0,1,18.5,35.391Z" fill="#5a5a5a"/><path d="M212.022,128A4.026,4.026,0,0,0,208,132.022a.8.8,0,1,0,1.609,0,2.413,2.413,0,1,1,4.826,0,.8.8,0,0,0,1.609,0A4.026,4.026,0,0,0,212.022,128Z" transform="translate(-187.087 -115.13)" fill="#5a5a5a"/><path d="M86.435,132.022a.8.8,0,1,0,1.609,0,4.022,4.022,0,0,0-8.043,0,.8.8,0,1,0,1.609,0,2.413,2.413,0,0,1,4.826,0Z" transform="translate(-71.957 -115.13)" fill="#5a5a5a"/></svg>