<svg xmlns="http://www.w3.org/2000/svg" width="22.333" height="27.547" viewBox="0 0 22.333 27.547"><g transform="translate(-48.456)"><path d="M70.7,140.25a.574.574,0,0,0-.405-.257,3.991,3.991,0,0,1-.671-7.767.574.574,0,0,0,.309-.855A6.7,6.7,0,0,0,65.1,128a9.453,9.453,0,0,0-3.006.644,7.257,7.257,0,0,1-2.159.5,7.257,7.257,0,0,1-2.159-.5A9.453,9.453,0,0,0,54.769,128c-2.143,0-6.313,3.038-6.313,8.608,0,5.294,3.861,12.052,6.887,12.052a7.324,7.324,0,0,0,3.329-.767,2.282,2.282,0,0,1,2.525,0,7.324,7.324,0,0,0,3.329.767c2.4,0,5.106-4.118,6.24-7.934A.574.574,0,0,0,70.7,140.25Z" transform="translate(0 -121.112)" fill="#fff"/><path d="M241.029,6.887A6.32,6.32,0,0,0,247.342.574.574.574,0,0,0,246.768,0a6.32,6.32,0,0,0-6.313,6.313A.574.574,0,0,0,241.029,6.887Z" transform="translate(-181.669)" fill="#fff"/></g></svg>