<svg xmlns="http://www.w3.org/2000/svg" xmlns:xlink="http://www.w3.org/1999/xlink" width="75.5" height="45.14" viewBox="0 0 75.5 45.14"><g transform="matrix(1, 0, 0, 1, 0, 0)"><path d="M-843.993,45.142h0a22.811,22.811,0,0,1-1.235-7.428,22.993,22.993,0,0,1,22.978-22.955,22.993,22.993,0,0,1,22.978,22.955,22.838,22.838,0,0,1-1.21,7.358,70.587,70.587,0,0,0-21.647-3.263A70.423,70.423,0,0,0-843.993,45.142Zm57.032-4.97h-4.924a2.463,2.463,0,0,1-2.462-2.459,2.463,2.463,0,0,1,2.462-2.46h4.924a2.464,2.464,0,0,1,2.462,2.46A2.463,2.463,0,0,1-786.961,40.172Zm-65.653,0h-4.924A2.464,2.464,0,0,1-860,37.713a2.464,2.464,0,0,1,2.462-2.46h4.924a2.464,2.464,0,0,1,2.462,2.46A2.463,2.463,0,0,1-852.614,40.172Zm56.663-15.166a2.473,2.473,0,0,1-2.135-1.231,2.44,2.44,0,0,1-.249-1.855,2.443,2.443,0,0,1,1.15-1.5l4.264-2.46a2.459,2.459,0,0,1,1.228-.33,2.474,2.474,0,0,1,2.135,1.23,2.44,2.44,0,0,1,.25,1.855,2.443,2.443,0,0,1-1.15,1.5l-4.264,2.46A2.453,2.453,0,0,1-795.951,25.007Zm-52.6,0a2.459,2.459,0,0,1-1.228-.331l-4.264-2.46a2.442,2.442,0,0,1-1.15-1.5,2.44,2.44,0,0,1,.249-1.855,2.467,2.467,0,0,1,2.132-1.231,2.47,2.47,0,0,1,1.231.33l4.264,2.46a2.443,2.443,0,0,1,1.15,1.5,2.439,2.439,0,0,1-.249,1.854A2.472,2.472,0,0,1-848.548,25.007Zm41.479-11.1a2.458,2.458,0,0,1-1.229-.331,2.443,2.443,0,0,1-1.15-1.5,2.44,2.44,0,0,1,.249-1.855l2.462-4.26a2.469,2.469,0,0,1,2.133-1.23,2.472,2.472,0,0,1,1.23.33,2.444,2.444,0,0,1,1.15,1.5,2.441,2.441,0,0,1-.249,1.855l-2.462,4.26A2.47,2.47,0,0,1-807.07,13.9Zm-30.359,0a2.471,2.471,0,0,1-2.134-1.231l-2.462-4.26a2.44,2.44,0,0,1-.25-1.855,2.443,2.443,0,0,1,1.15-1.5,2.46,2.46,0,0,1,1.227-.329,2.475,2.475,0,0,1,2.136,1.23l2.462,4.26a2.44,2.44,0,0,1,.25,1.855,2.443,2.443,0,0,1-1.15,1.5A2.458,2.458,0,0,1-837.429,13.9Zm15.18-4.065a2.464,2.464,0,0,1-2.462-2.46V2.46A2.464,2.464,0,0,1-822.249,0a2.464,2.464,0,0,1,2.462,2.46V7.379A2.464,2.464,0,0,1-822.249,9.838Z" transform="translate(860 0)" fill="#ffb100"/></g></svg>