<svg xmlns="http://www.w3.org/2000/svg" width="48.15" height="46.75" viewBox="0 0 48.15 46.75"><g transform="translate(-182 -122.826)"><path d="M2,398.563a4.007,4.007,0,0,0-2,3.471c0,.053,0,.106,0,.158a2,2,0,0,0,4,0c0-.053,0-.105,0-.158A4.007,4.007,0,0,0,2,398.563Zm0,0" transform="translate(182 -238.255)" fill="#84abc1"/><path d="M2,404.082a1.914,1.914,0,0,1-2-1.89c0-.053,0-.106,0-.158a4.007,4.007,0,0,1,2-3.471,12.027,12.027,0,0,0-.4,3.471c0,.053,0,.105,0,.158C1.612,403.452,1.808,404.082,2,404.082Zm0,0" transform="translate(182 -238.255)" fill="#4d87a1"/><path d="M95.442,438.422a4.006,4.006,0,0,0-2,3.471c0,.053,0,.106,0,.158a2,2,0,0,0,4,0c0-.053,0-.105,0-.158A4.006,4.006,0,0,0,95.442,438.422Zm0,0" transform="translate(97.35 -274.366)" fill="#84abc1"/><path d="M95.442,443.942a1.915,1.915,0,0,1-2-1.89c0-.053,0-.106,0-.158a4.007,4.007,0,0,1,2-3.471,12.025,12.025,0,0,0-.4,3.471c0,.053,0,.105,0,.158C95.049,443.311,95.246,443.942,95.442,443.942Zm0,0" transform="translate(97.35 -274.366)" fill="#4d87a1"/><path d="M95.442,329.023a4.006,4.006,0,0,0-2,3.471c0,.053,0,.106,0,.158a2,2,0,0,0,4,0c0-.052,0-.105,0-.158A4.006,4.006,0,0,0,95.442,329.023Zm0,0" transform="translate(97.35 -175.256)" fill="#84abc1"/><path d="M95.442,334.54a1.915,1.915,0,0,1-2-1.89c0-.053,0-.105,0-.158a4.008,4.008,0,0,1,2-3.471,12.027,12.027,0,0,0-.4,3.471c0,.053,0,.106,0,.158C95.049,333.909,95.246,334.54,95.442,334.54Zm0,0" transform="translate(97.35 -175.252)" fill="#4d87a1"/><path d="M188.876,398.563a4.007,4.007,0,0,0-2,3.471c0,.053,0,.106,0,.158a2,2,0,0,0,4,0c0-.053,0-.105,0-.158A4.007,4.007,0,0,0,188.876,398.563Zm0,0" transform="translate(12.703 -238.255)" fill="#84abc1"/><path d="M188.876,404.082a1.914,1.914,0,0,1-2-1.89c0-.053,0-.106,0-.158a4.007,4.007,0,0,1,2-3.471,12.04,12.04,0,0,0-.4,3.471c0,.053,0,.105,0,.158C188.483,403.452,188.679,404.082,188.876,404.082Zm0,0" transform="translate(12.703 -238.255)" fill="#4d87a1"/><path d="M282.313,438.422a4.007,4.007,0,0,0-2,3.471c0,.053,0,.106,0,.158a2,2,0,0,0,4,0c0-.053,0-.105,0-.158A4.006,4.006,0,0,0,282.313,438.422Zm0,0" transform="translate(-71.948 -274.366)" fill="#84abc1"/><path d="M282.313,443.942a1.915,1.915,0,0,1-2-1.89c0-.053,0-.106,0-.158a4.007,4.007,0,0,1,2-3.471,12.025,12.025,0,0,0-.4,3.471c0,.053,0,.105,0,.158C281.92,443.311,282.117,443.942,282.313,443.942Zm0,0" transform="translate(-71.948 -274.366)" fill="#4d87a1"/><path d="M469.723,438.422a4.007,4.007,0,0,0-2,3.471c0,.053,0,.106,0,.158a2,2,0,0,0,4,0c0-.053,0-.105,0-.158A4.007,4.007,0,0,0,469.723,438.422Zm0,0" transform="translate(-241.734 -274.366)" fill="#84abc1"/><path d="M469.723,443.942a1.914,1.914,0,0,1-2-1.89c0-.053,0-.106,0-.158a4.007,4.007,0,0,1,2-3.471,12.025,12.025,0,0,0-.4,3.471c0,.053,0,.105,0,.158C469.33,443.311,469.527,443.942,469.723,443.942Zm0,0" transform="translate(-241.734 -274.366)" fill="#4d87a1"/><path d="M375.747,398.563a4.007,4.007,0,0,0-2,3.471c0,.053,0,.106,0,.158a2,2,0,0,0,4,0c0-.053,0-.105,0-.158A4.007,4.007,0,0,0,375.747,398.563Zm0,0" transform="translate(-156.595 -238.255)" fill="#84abc1"/><path d="M375.747,404.082a1.914,1.914,0,0,1-2-1.89c0-.053,0-.106,0-.158a4.007,4.007,0,0,1,2-3.471,12.041,12.041,0,0,0-.4,3.471c0,.053,0,.105,0,.158C375.354,403.452,375.55,404.082,375.747,404.082Zm0,0" transform="translate(-156.595 -238.255)" fill="#4d87a1"/><path d="M39.1,17.075a6.442,6.442,0,0,1-6.442,6.441H9.343a8.566,8.566,0,1,1,0-17.131,8.723,8.723,0,0,1,1.25.092A11.761,11.761,0,0,1,32.544,9.048a11.623,11.623,0,0,1,.261,1.589h0A6.441,6.441,0,0,1,39.1,17.075Zm0,0" transform="translate(181.296 122.826)" fill="#84abc1"/><path d="M25.188.734a11.772,11.772,0,0,0-14.6,5.746h0a8.723,8.723,0,0,0-1.25-.092,8.566,8.566,0,0,0,0,17.131h4.14a7.718,7.718,0,0,1-1.4-15.308,7.546,7.546,0,0,1,1.091-.122c.1,0,.209-.006.314-.006a7.664,7.664,0,0,1,3.81,1.006C17.137,8,16.013,6.985,14.355,6.164,15.265,3.086,18.362.232,25.188.734Zm0,0" transform="translate(181.296 122.822)" fill="#4d87a1"/><path d="M262.009,245.551a.449.449,0,0,0,.079.008h-.357C261.824,245.559,261.916,245.556,262.009,245.551Zm0,0" transform="translate(-55.117 -99.633)" fill="#84abc1"/><path d="M213.451,180.587a5.209,5.209,0,0,1-5.21,5.209H189.388a6.927,6.927,0,1,1,0-13.854,7.06,7.06,0,0,1,1.011.074,9.507,9.507,0,0,1,17.965,3.364h0A5.208,5.208,0,0,1,213.451,180.587Zm0,0" transform="translate(16.698 -28.268)" fill="#d3ddea"/><path d="M202.2,167.372a9.52,9.52,0,0,0-11.8,4.647h0a7.011,7.011,0,0,0-1.011-.074,6.927,6.927,0,1,0,0,13.854h3.348a6.242,6.242,0,0,1-1.136-12.38,6.061,6.061,0,0,1,.882-.1c.084,0,.169,0,.254,0a6.2,6.2,0,0,1,3.081.813c-.126-.879-1.035-1.7-2.376-2.367C194.178,169.274,196.683,166.965,202.2,167.372Zm0,0" transform="translate(16.698 -28.271)" fill="#84abc1"/></g></svg>