<svg xmlns="http://www.w3.org/2000/svg" width="46.16" height="46.162" viewBox="0 0 46.16 46.162"><g transform="translate(0.42 0.532)"><path d="M44.015,25.617A2.33,2.33,0,0,0,41.155,26l-.173.173a15.427,15.427,0,0,1-10.857,4.448h-.082A15.53,15.53,0,0,1,19.149,4.111l.013-.013.034-.034a2.347,2.347,0,0,0,.386-2.878A2.351,2.351,0,0,0,16.888.09,22.934,22.934,0,0,0,1.426,29.89a.672.672,0,1,0,1.265-.451A21.6,21.6,0,0,1,17.246,1.385a1,1,0,0,1,1.175.474,1,1,0,0,1-.173,1.253l-.012.012-.042.042A16.861,16.861,0,0,0,18.2,27.008a16.769,16.769,0,0,0,11.837,4.954h.089a16.764,16.764,0,0,0,11.8-4.834l.187-.187a.981.981,0,0,1,1.231-.162,1,1,0,0,1,.482,1.175,21.638,21.638,0,0,1-20.8,15.832h-.079A21.663,21.663,0,0,1,3.707,31.825a.672.672,0,0,0-1.2.6A23.007,23.007,0,0,0,22.941,45.13h.084A22.981,22.981,0,0,0,45.118,28.312a2.353,2.353,0,0,0-1.1-2.7Z" transform="translate(0)" fill="#afb2dc" stroke="#afb2dc" stroke-width="1"/><path d="M239.926,36.27a.933.933,0,0,1,.268.825l-.729,4.251a2.275,2.275,0,0,0,3.3,2.4l3.819-2.008a.931.931,0,0,1,.867,0l3.819,2.008a2.275,2.275,0,0,0,3.3-2.4l-.729-4.25a.933.933,0,0,1,.268-.826l3.089-3.011a2.275,2.275,0,0,0-1.26-3.881l-4.27-.621a.93.93,0,0,1-.7-.509l-.266-.539a.672.672,0,1,0-1.2.594l.266.539a2.273,2.273,0,0,0,1.713,1.244l4.269.621a.931.931,0,0,1,.516,1.589l-3.089,3.011a2.276,2.276,0,0,0-.655,2.014l.729,4.251a.932.932,0,0,1-1.351.983l-3.819-2.008a2.273,2.273,0,0,0-2.117,0l-3.819,2.008a.932.932,0,0,1-1.351-.983l.729-4.252a2.276,2.276,0,0,0-.654-2.013L237.774,32.3a.932.932,0,0,1,.516-1.589l4.268-.62a2.274,2.274,0,0,0,1.714-1.244l1.909-3.869a.913.913,0,0,1,.835-.519h0a.915.915,0,0,1,.836.519l.46.934a.672.672,0,1,0,1.2-.594l-.461-.935a2.262,2.262,0,0,0-2.04-1.267h0a2.26,2.26,0,0,0-2.039,1.268l-1.909,3.868a.931.931,0,0,1-.7.51l-4.269.621a2.275,2.275,0,0,0-1.261,3.881Z" transform="translate(-214.913 -21.042)" fill="#afb2dc" stroke="#afb2dc" stroke-width="1"/></g></svg>