<svg xmlns="http://www.w3.org/2000/svg" width="290.323" height="69.557" viewBox="0 0 290.323 69.557"><path d="M-97.051-5.612c.854-1.159,1.281-2.44.61-2.989-.793-.61-1.342-.488-2.44.793-1.769,2.074-3.355,3.9-5.368,5.856C-107.726,1.4-114.8,7.2-120.292,7.2a5.085,5.085,0,0,1-3.6-1.525c-1.342-1.342-1.83-3.416-1.83-5.734,0-5.429,2.928-12.5,4.392-16.287a135.126,135.126,0,0,1,8.662-17.629c2.5-4.331,4.88-7.991,7.564-12.017a6.681,6.681,0,0,1,5-2.806,13.764,13.764,0,0,1,2.135-.183c6.588.061,11.59.244,18.117.488,1.586.061,2.5,0,2.684-.671.305-1.037-1.159-1.464-2.806-1.586-6.466-.549-11.407-1.037-18.361-1.4-.732-.061-1.22-.427-.976-1.1.244-.732.549-1.586.793-2.257.427-.976.427-1.586-.122-1.891-.427-.244-1.037.061-1.342.305-.915.854-1.83,1.769-2.684,2.623s-1.647,1.708-2.44,2.5a3.209,3.209,0,0,1-2.013,1.22c-5,.488-10,1.159-14.7,2.074A103.055,103.055,0,0,0-140.666-43c-1.037.427-1.708,1.037-1.708,1.952s.427,1.281,1.525,1.342A12.857,12.857,0,0,0-132-42.456a19.933,19.933,0,0,1,6.527-2.989,56.5,56.5,0,0,1,9.272-2.135,28.864,28.864,0,0,1,7.259-.305c1.525.183.732,1.342-.183,2.989-2.2,3.782-4.392,7.5-6.588,11.285-2.013,3.477-4.636,8.3-7.076,13.481C-125.66-14.091-129.625-5.8-129.625.854a10.227,10.227,0,0,0,2.684,7.381,8.9,8.9,0,0,0,6.4,2.806,13.647,13.647,0,0,0,4.087-.671c4.819-1.464,10.065-5.795,14.03-9.7A58.385,58.385,0,0,0-97.051-5.612Zm25.925-1.342a28.143,28.143,0,0,1-7.991,1.83c-3.233,0-3.172-1.708-1.708-4.636L-79-13.42a4.508,4.508,0,0,0,.488-1.342,1.61,1.61,0,0,0-.732-1.708,2.279,2.279,0,0,0-2.013-.122,4.43,4.43,0,0,0-1.708,1.525c-.976,1.342-2.074,3.05-3.05,4.453a17.293,17.293,0,0,1-5.612,4.88,3.9,3.9,0,0,1-2.013.61c-1.281,0-1.4-1.037-1.1-1.952.976-2.2,2.318-5.185,3.172-7.2a7.17,7.17,0,0,0,.549-2.318,1.219,1.219,0,0,0-.976-1.22,1.83,1.83,0,0,0-1.952.976c-1.952,3.294-4.575,7.808-6.466,11.163-.854,1.586-.427,3.965.488,4.758a4.528,4.528,0,0,0,4.758.793c1.4-.488,2.684-1.037,4.026-1.647,1.281-.61,2.562-1.281,3.782-1.891.793.549,1.22.915,1.952,1.4,1.952,1.281,3.233,1.281,5.429,1.037A28.686,28.686,0,0,0-73.81-2.806,30.687,30.687,0,0,0-70.272-4.27c.549-.244,1.159-.549,1.708-.854a10.6,10.6,0,0,0,1.83-1.22,1.435,1.435,0,0,0,.488-1.464c-.244-.671-.854-.793-1.586-.488C-68.93-7.869-69.906-7.381-71.126-6.954Zm37.027.976a38.651,38.651,0,0,1-5.246,1.342,14.331,14.331,0,0,1-3.6.122,3.109,3.109,0,0,1-2.867-2.623,8.32,8.32,0,0,1,1.22-5.612,24.3,24.3,0,0,1,1.464-2.318,86.047,86.047,0,0,0,9.638-16.287,3.816,3.816,0,0,0,.061-3.538,1.782,1.782,0,0,0-1.83-.732,3.481,3.481,0,0,0-1.769,1.281A45.359,45.359,0,0,0-43.371-23.79c-.61,1.342-1.22,2.623-1.952,3.9a2.154,2.154,0,0,1-2.257,1.4,22.5,22.5,0,0,0-5.368.183,25.2,25.2,0,0,0-14.4,7.5c-1.525,1.525-2.867,3.721-2.257,6.344a3.15,3.15,0,0,0,2.44,2.318,10.789,10.789,0,0,0,6.344-1.159c2.745-1.281,5.063-2.5,7.625-3.9.61-.305,1.342-.671,2.257-1.1A14.2,14.2,0,0,0-48.983-3.05,5.991,5.991,0,0,0-43.737-.732a27.54,27.54,0,0,0,8.723-1.83c.854-.3,1.83-.671,2.684-1.037a29.107,29.107,0,0,0,3.111-1.525,10.6,10.6,0,0,0,1.83-1.22A1.435,1.435,0,0,0-26.9-7.808c-.244-.671-.854-.793-1.586-.488s-1.464.671-2.623,1.159C-32.147-6.71-33.123-6.283-34.1-5.978Zm-28.609,0a1.728,1.728,0,0,1-2.013-.488c-.61-.915-.061-2.684.671-3.538a20.012,20.012,0,0,1,10.614-5.612,5.2,5.2,0,0,1,3.111.427,1.671,1.671,0,0,1,.549,1.891,2.875,2.875,0,0,1-.915,1.159A50.836,50.836,0,0,1-62.708-5.978Zm33.977-3.355C-30.2-6.527-31.11-2.806-29.768-1.4c2.379,2.5,5.551,1.525,8.6.122A27.329,27.329,0,0,0-16.226-4.27a11.539,11.539,0,0,0,4.636-7.991c.244-1.647-.793-3.721-2.257-5.124a7.454,7.454,0,0,0-4.575-1.891,5.17,5.17,0,0,0-4.087,1.037,12.638,12.638,0,0,0-2.44,2.684A54.6,54.6,0,0,0-28.731-9.333Zm4.514,4.7a1.982,1.982,0,0,1-1.037-2.318,15.456,15.456,0,0,1,3.9-6.771,3.225,3.225,0,0,1,3.294-.732,2.249,2.249,0,0,1,1.769,2.074A7.508,7.508,0,0,1-18.544-7.2a11.03,11.03,0,0,1-4.209,2.562A2.019,2.019,0,0,1-24.217-4.636Zm58.194.854a15.521,15.521,0,0,0,4.148-6.161,15.591,15.591,0,0,0,.732-3.965c.122-2.135-.244-3.782-1.769-5.185a3.479,3.479,0,0,0-2.379-.915c-2.44,0-5.551,1.769-7.625,3.66-1.891,1.647-3.05,2.745-4.758,4.453-.793.793-1.22.61-1.037-.366a88.166,88.166,0,0,1,2.379-9.821c.671-2.318,1.464-4.514,2.379-6.893,2.44-6.344,4.7-12.749,7.808-18.788a44.369,44.369,0,0,1,3.05-5.185,1.122,1.122,0,0,0-.061-1.525c-.732-.549-1.464.061-1.891.671a33.654,33.654,0,0,0-5.185,8.662C26.84-38.674,24.217-32.147,21.9-25.5c-2.257,6.649-4.209,13.542-6.1,20.313A37.123,37.123,0,0,0,14.762.122c-.122,1.4.122,2.867,1.586,3.538a2.062,2.062,0,0,0,1.342.061,5.879,5.879,0,0,0,2.44-2.44c1.647-2.5,1.708-2.562,4.453-1.4A5.054,5.054,0,0,0,28.121,0,15.076,15.076,0,0,0,33.977-3.782Zm-8.54-4.88a20.551,20.551,0,0,1,6.4-7.259,3.232,3.232,0,0,1,2.135-.793,1.56,1.56,0,0,1,1.464,1.342c.488,2.867-.732,5.185-2.257,7.381A3.467,3.467,0,0,1,29.951-6.71,7.069,7.069,0,0,1,25.437-8.662Zm18.849-8.174a12.317,12.317,0,0,0-3.538,8.479,7.455,7.455,0,0,0,2.928,6.222A11.624,11.624,0,0,0,50.142-.427a34.323,34.323,0,0,0,8.906-1.4,36.425,36.425,0,0,0,7.137-3.05A10.483,10.483,0,0,0,68.2-6.344a1.435,1.435,0,0,0,.488-1.464c-.244-.671-.854-.793-1.586-.488a14.513,14.513,0,0,1-1.647.732,47.178,47.178,0,0,1-7.015,2.2,27.858,27.858,0,0,1-5.368.61c-2.684,0-5.612-.427-6.283-2.5a21.137,21.137,0,0,0,3.294-1.952,14.137,14.137,0,0,0,4.331-4.758c1.281-2.318,1.22-3.721-.854-5.8a3.38,3.38,0,0,0-2.318-.915C48.739-20.679,45.872-18.361,44.286-16.836Zm5,.366c.732-.3,1.952,0,1.586,1.1a5.832,5.832,0,0,1-1.4,2.135,10.734,10.734,0,0,1-2.2,1.708,7.13,7.13,0,0,1-2.013.854,5.018,5.018,0,0,1,.366-2.5A6.152,6.152,0,0,1,49.288-16.47ZM114.131-5.429c.427-.3.793-.61,1.159-.915a1.435,1.435,0,0,0,.488-1.464c-.244-.671-.854-.854-1.586-.549a10.925,10.925,0,0,0-1.464.732,16.2,16.2,0,0,1-7.564,2.135,4.485,4.485,0,0,1-3.294-1.586,5.646,5.646,0,0,1-1.525-4.087,14.73,14.73,0,0,1,.366-3.05c.122-.793-.183-1.952-1.159-2.013-1.342-.061-2.013.915-2.989,2.074-.427.488-.793.915-1.281,1.4-1.708,1.708-5.307,4.7-7.808,4.636-1.1,0-1.647-.976-1.952-3.294-.061-.549-.061-1.525-.061-2.318,0-1.281-.366-2.318-1.647-2.318-1.22,0-2.2,1.159-3.111,2.2-2.623,2.928-5.429,5.856-8.357,8.54a2.563,2.563,0,0,1-1.586.732c-.732,0-.61-1.83-.122-4.148.427-2.135,1.159-5.063,1.708-7.259.244-.976-.183-1.647-.671-1.647a1.717,1.717,0,0,0-1.708.976,12.216,12.216,0,0,0-1.22,2.562c-.915,2.623-1.586,5.124-2.257,7.686a14.179,14.179,0,0,0-.427,3.6A3,3,0,0,0,68.747.244a5.948,5.948,0,0,0,3.6-1.647c2.44-2.074,4.819-4.209,7.137-6.283a1.206,1.206,0,0,1,1.769.183c.854,1.525,1.83,3.477,3.965,3.477a10.863,10.863,0,0,0,4.453-1.4,35.2,35.2,0,0,0,4.392-2.5,1.267,1.267,0,0,1,1.83.427c.488.793,1.281,1.891,1.83,2.623a8.878,8.878,0,0,0,6.893,3.233C108.031-1.647,111.386-3.477,114.131-5.429ZM138.287-33.55c.915.61.244,1.891-1.1,3.66-1.952,2.562-3.9,4.941-5.917,7.442-.854,1.1-1.037,2.806-.122,3.6.976.854,2.257.61,3.355-.366a46.785,46.785,0,0,0,10.187-13.3,19.554,19.554,0,0,0,2.257-8.357,8.185,8.185,0,0,0-1.647-5.49,5.209,5.209,0,0,0-4.087-1.647,11.5,11.5,0,0,0-7.259,3.233,5.044,5.044,0,0,0-1.708,3.721,5.944,5.944,0,0,0,2.684,5.063A36.561,36.561,0,0,0,138.287-33.55Zm2.928-11.468c2.562,0,2.318,2.989,1.952,5-.244,1.4-.854,3.416-2.562,3.66-1.769.244-4.453-1.281-4.453-3.355a4.54,4.54,0,0,1,1.159-2.989A5.54,5.54,0,0,1,141.215-45.018Zm-21.289,40.5a2.734,2.734,0,0,0-3.05,1.952A2.409,2.409,0,0,0,118.767,0a2.678,2.678,0,0,0,3.355-1.342A1.844,1.844,0,0,0,122-3.477,2.751,2.751,0,0,0,119.926-4.514Z" transform="translate(142.874 58.016)" stroke="rgba(0,0,0,0)" stroke-width="1"/></svg>