<svg xmlns="http://www.w3.org/2000/svg" width="28" height="28" viewBox="0 0 28 28"><path class="a" d="M0,28l1.931-7A13.925,13.925,0,0,1,13.952,0,14.063,14.063,0,0,1,28,13.9,14.229,14.229,0,0,1,13.952,28a14.054,14.054,0,0,1-6.807-1.931Z"/><path class="b" d="M49.255,65.283l.434.241a11.462,11.462,0,0,0,6.034,1.786A11.7,11.7,0,0,0,67.31,55.628a11.587,11.587,0,0,0-23.172,0,11.7,11.7,0,0,0,1.786,6.228l.29.434L45.1,66.345Z" transform="translate(-41.724 -41.724)"/><path class="c" d="M132.851,135.11l-.917-.048a1.1,1.1,0,0,0-.772.29,4,4,0,0,0-1.352,2.076,6.279,6.279,0,0,0,1.448,4.924,14.63,14.63,0,0,0,7.917,5.745,3.922,3.922,0,0,0,3.283-.386,2.848,2.848,0,0,0,1.255-1.835l.145-.676a.485.485,0,0,0-.241-.531l-3.041-1.4a.461.461,0,0,0-.579.145l-1.207,1.545a.376.376,0,0,1-.386.1,9.382,9.382,0,0,1-5.069-4.345.364.364,0,0,1,.048-.386l1.159-1.3a.6.6,0,0,0,.1-.483l-1.4-3.138a.421.421,0,0,0-.386-.29" transform="translate(-122.616 -127.676)"/></svg>