<svg height="512" viewBox="0 0 46 60" width="512" xmlns="http://www.w3.org/2000/svg"><g id="003---Glove" transform="translate(0 -1)"><path id="Shape" d="m10 58c0 1.6568542 1.3431458 3 3 3h14c1.6568542 0 3-1.3431458 3-3v-2.91c.6749264-3.7304697 2.2774314-7.2312211 4.66-10.18l10.22-13.18c1.3530976-1.7507427 1.0307427-4.2669024-.72-5.62s-4.2669024-1.0307427-5.62.72l-4.91 6.35c-.2638204.3748145-.7167777.568386-1.17.5-1-.25-1.66-2.22-1.72-5.26 0-2.78 0-3.06 3.12-20.62.3708086-1.45812023-.1079464-3.00098354-1.2390563-3.99305412-1.1311098-.99207058-2.7232327-1.2655268-4.1205418-.70772664-1.397309.55780015-2.3634313 1.85249753-2.5004019 3.35078076l-1 5.79v-7.24c.0029295-1.11307748-.4580688-2.1770388-1.2721713-2.93610873-.8141025-.75906994-1.9076768-1.14459352-3.0178287-1.06389127-2.1379553.20378787-3.7563576 2.02285465-3.71 4.17v7.7l-1.07-5.95c-.1808412-1.47194932-1.1612205-2.72303752-2.5472315-3.25059016-1.386011-.52755265-2.9501448-.24497378-4.06394833.73419931-1.11380357.9791731-1.59444988 2.49421249-1.24882017 3.93639085l1.66 9.27-1.12-2.61c-.5489043-1.3480447-1.78673701-2.2915312-3.23205602-2.4635004s-2.86997734.4547248-3.71986901 1.6363358-.99085928 2.731619-.36807497 4.0471646c5.25 12.34 8.71 26.36 8.71 39.78zm.68-15h10.32c1.6568542 0 3 1.3431458 3 3s-1.3431458 3-3 3h-9.48c-.22-2-.52-4-.84-6zm17.32 15c0 .5522847-.4477153 1-1 1h-14c-.5522847 0-1-.4477153-1-1v-2h16zm7.21-23.6 4.91-6.35c.4394367-.566266 1.1475922-.8550806 1.8577113-.7576503.710119.0974304 1.3143176.5663037 1.585 1.23.2706823.6636963.1667254 1.4213843-.2727113 1.9876503l-10.21 13.18c-2.4137373 3.0108856-4.0976972 6.5396714-4.92 10.31h-16.16c-.06-1-.16-2-.25-3h9.25c2.7614237 0 5-2.2385763 5-5s-2.2385763-5-5-5h-10.67c-.14-.76-.3-1.51-.46-2.27 6.9622405-.5841493 13.6064256-3.1716652 19.13-7.45.43 2.5 1.43 3.95 3 4.34 1.2172877.2662824 2.476855-.2124316 3.21-1.22zm-31.45-19.5c.49535293-.3505194 1.12305786-.4571836 1.7063891-.289962.58333125.1672216 1.05919337.5902417 1.2936109 1.149962l4.59 10.83c.2048038.4593787.7189372.6951588 1.2006899.550633s.7811961-.624379.6993101-1.120633l-3.25-18.02c-.19882251-1.1045695.5354305-2.16117749 1.64-2.36s2.1611775.5354305 2.36 1.64l3.05 17c.0497056.5522847.5377153.9597056 1.09.91s.9597056-.5377153.91-1.09v-18.93c-.0369607-1.07860025.7422738-2.01282067 1.81-2.17.5542436-.03889413 1.0996886.15452082 1.5056153.53389159.4059268.37937077.6357477.91050349.6343847 1.46610841v19.09c-.0469442.5522847.3627153 1.0380558.915 1.085s1.0380558-.3627153 1.085-.915l3-17.48c.0656985-.75065814.5477323-1.40067535 1.2469673-1.68152133.6992349-.28084598 1.4969709-.14484518 2.0636532.35181875.5666824.49666394.8061128 1.26967887.6193795 1.99970258-3 17.51-3.24 18.16-3.13 21.4-2.5 2.27-8.78 6.87-19.31 7.91-1.53712768-6.6190578-3.6518991-13.090526-6.32-19.34-.4096589-.875376-.16567867-1.917461.59-2.52z"/><circle id="Oval" cx="21" cy="46" r="1"/></g></svg>