<?xml version="1.0" encoding="iso-8859-1"?>
<!-- Generator: Adobe Illustrator 19.0.0, SVG Export Plug-In . SVG Version: 6.00 Build 0)  -->
<svg version="1.1" id="Layer_1" xmlns="http://www.w3.org/2000/svg" xmlns:xlink="http://www.w3.org/1999/xlink" x="0px" y="0px"
	 viewBox="0 0 511.997 511.997" style="enable-background:new 0 0 511.997 511.997;" xml:space="preserve">
<g>
	<g>
		<path d="M417.795,304.046c-8.366-11.904-11.09-26.551-7.342-40.677c1.536-5.723,5.385-10.962,10.834-14.747
			c56.265-39.049,50.021-122.277,49.289-130.213c-0.091-36.882-10.779-66.112-31.781-86.875C406.778-0.11,362.782,0.101,360.862,0
			c-56.25,0-74.621,37.224-80.089,54.327c-33.304-18.541-63.741-17.863-67.378-17.721l-15.643,0.018
			c-2.112-0.128-52.827-2.432-96.512,38.903C61.167,113.442,40.86,174.507,40.86,257.03c0,62.446,6.135,126.062,50.624,168.293
			c7.169,6.806,14.88,12.9,22.766,18.617v58.915c0,5.047,4.087,9.143,9.143,9.143c5.056,0,9.143-4.096,9.143-9.143v-46.291
			c0.949,0.636,1.897,1.27,2.843,1.902l8.768,5.888c3.456,2.341,6.839,4.846,10.203,7.333
			c14.638,10.825,29.787,22.025,51.081,22.025c21.294,0,36.434-11.2,51.081-22.025c3.365-2.487,6.738-4.992,10.203-7.333
			l8.768-5.888c1.11-0.742,2.223-1.487,3.337-2.234v46.622c0,5.047,4.087,9.143,9.143,9.143c5.056,0,9.143-4.096,9.143-9.143V443.58
			c7.712-5.612,15.249-11.594,22.272-18.257c7.594-7.209,14.047-15.054,19.567-23.397c1.806,10.218,3.475,21.019,5.039,32.588
			c8.073,59.849,45.76,74.094,67.511,77.248c0.585,0.091,1.17,0.128,1.746,0.128c4.891,0,9.381-2.962,11.301-7.634
			c2.121-5.147,0.503-11.035-3.941-14.318c-4.206-3.099-5.541-9.07-3.968-17.737c1.618-8.859,6.117-17.838,13.029-25.975
			c24.201-28.48,23.442-48.375,22.629-53.906C451.971,359.543,433.402,326.272,417.795,304.046z M113.537,89.067
			c34.121-32.485,74.094-34.194,82.24-34.194c0.878,0,1.381,0.018,1.472,0.018h16.357c0.174,0,0.338,0,0.503-0.009
			c0.521-0.064,44.937-2.03,82.944,33.929c36.27,34.322,54.665,90.926,54.665,168.219c0,2.602-0.012,5.224-0.031,7.855
			c-37.304-22.534-89.565-18.227-91.401-18.027c-47.881,0-111.442-69.449-112.082-70.144c-1.737-1.911-4.197-2.999-6.775-2.999
			c-36.461,0-64.466,30.155-81.407,55.119C64.051,166.03,82.004,119.09,113.537,89.067z M306.789,412.066
			c-12.398,11.758-27.182,21.641-41.472,31.195l-8.869,5.952c-3.666,2.487-7.241,5.129-10.816,7.771
			c-12.818,9.49-24.933,18.441-40.201,18.441c-15.269,0-27.383-8.951-40.21-18.441c-3.566-2.642-7.15-5.285-10.807-7.771
			l-8.878-5.952c-14.29-9.554-29.074-19.438-41.463-31.195c-38.934-36.967-44.364-93.289-44.881-145.048
			c5.103-10.855,35.453-71.408,78.404-74.871c13.879,14.565,72.677,72.96,123.456,72.96h0.046
			c0.594-0.044,58.985-4.892,90.072,21.845c-1.222,28.774-5.019,57.995-16.07,83.751c-0.346,0.596-0.628,1.229-0.833,1.892
			C327.778,387.145,318.919,400.549,306.789,412.066z M415.719,434.386c-8.978,10.587-14.885,22.528-17.079,34.542
			c-1.545,8.512-1.051,15.287,0.567,20.672c-16.375-6.857-32.402-22.711-37.102-57.536c-2.789-20.67-5.916-38.998-9.566-55.938
			c14.757-35.841,17.463-77.722,17.463-119.096c0-82.523-20.315-143.589-60.389-181.504c-4.203-3.979-8.472-7.547-12.756-10.758
			c0.975-5.432,10.155-46.483,64.077-46.483h0.018c0.987,0,38.821,0.265,65.115,26.377c17.399,17.289,26.222,42.249,26.222,74.194
			c0,0.311,0.009,0.622,0.037,0.933c0.091,0.795,7.616,79.735-41.472,113.819c-8.987,6.245-15.406,15.122-18.203,25.554
			c-5.01,18.871-1.298,39.067,10.176,55.397c11.648,16.567,31.177,48.823,31.177,78.583c0,0.53,0.101,1.353,0.192,1.874
			C434.224,395.163,436.519,409.911,415.719,434.386z"/>
	</g>
</g>
<g>
</g>
<g>
</g>
<g>
</g>
<g>
</g>
<g>
</g>
<g>
</g>
<g>
</g>
<g>
</g>
<g>
</g>
<g>
</g>
<g>
</g>
<g>
</g>
<g>
</g>
<g>
</g>
<g>
</g>
</svg>
