<svg id="Capa_1" enable-background="new 0 0 512.006 512.006" height="512" viewBox="0 0 512.006 512.006" width="512" xmlns="http://www.w3.org/2000/svg"><g><path d="m22.531 511.998c-4.106 0-8.188-1.117-11.737-3.278-5.304-3.231-8.954-8.358-10.281-14.438-2.562-11.75 4.719-23.442 16.574-26.619l8.328-2.231 166.617-166.618c2.93-2.928 7.678-2.928 10.607 0 2.929 2.93 2.929 7.678 0 10.607l-168.039 168.038c-.932.931-2.091 1.6-3.363 1.94l-10.269 2.751c-4.036 1.082-6.639 5.09-5.8 8.935.443 2.034 1.661 3.747 3.429 4.824 1.771 1.077 3.847 1.376 5.846.841l126.883-33.999c3.316-.889 6.012-3.199 7.395-6.341 1.384-3.143 1.27-6.691-.314-9.738l-9.267-17.828c-1.51-2.902-.963-6.449 1.351-8.763l10.909-10.909c16.523-16.522 37.186-27.567 59.752-31.939 32.949-6.385 53.724-24.801 61.744-54.735l7.958-29.702-44.46-44.46-20.358 37.261c-1.985 3.635-6.539 4.971-10.179 2.985-3.635-1.986-4.971-6.543-2.985-10.179l22.469-41.121-113.531-113.529c-11.613-11.614-19-27.003-20.797-43.332-1.803-16.384 2.1-33.071 10.99-46.987 13.37-20.93 36.559-33.425 62.03-33.425h225.4c4.143 0 7.5 3.357 7.5 7.5s-3.357 7.5-7.5 7.5h-13.713c29.076 39.698 28.111 94.675-2.886 133.363l8.118 2.489c7.767 2.382 15.864 3.589 24.069 3.589 45.206 0 81.983-36.777 81.983-81.983 0-28.728-11.688-49.984-16.454-57.458h-51.118c-4.143 0-7.5-3.357-7.5-7.5s3.357-7.5 7.5-7.5h55.072c2.319 0 4.508 1.073 5.929 2.906.881 1.137 21.571 28.312 21.571 69.552 0 47.507-34.339 87.146-79.497 95.404l-64.004 64.005c-2.93 2.928-7.678 2.928-10.607 0-2.929-2.93-2.929-7.678 0-10.607l51.955-51.954c-7.927-.418-15.741-1.796-23.296-4.111l-19.2-5.888c-.086-.024-.172-.051-.258-.079l-61.688-18.914-23.353 42.739.347.347 12.952-6.732c7.104-3.692 15.378-3.958 22.702-.732s12.713 9.509 14.783 17.24l33.999 126.883c1.584 5.913.666 12.303-2.52 17.532-3.23 5.303-8.358 8.953-14.438 10.279-11.745 2.558-23.441-4.716-26.618-16.573l-2.231-8.329-17.933-17.933-5.718 21.337c-9.495 35.439-34.869 58.116-73.379 65.579-19.618 3.801-37.6 13.421-51.998 27.82l-7.023 7.022 6.732 12.952c3.692 7.103 3.959 15.377.732 22.702-3.226 7.324-9.509 12.713-17.24 14.783l-126.88 33.999c-1.901.51-3.85.76-5.794.76zm310.531-198.208c.931.932 1.601 2.091 1.94 3.363l2.751 10.27c1.082 4.036 5.089 6.637 8.934 5.799 2.035-.443 3.748-1.66 4.825-3.428 1.078-1.77 1.376-3.846.841-5.846l-33.999-126.883c-.889-3.316-3.199-6.012-6.341-7.395-3.143-1.385-6.691-1.27-9.738.313l-17.828 9.268c-2.902 1.51-6.449.963-8.763-1.351l-10.909-10.909c-16.522-16.523-27.567-37.186-31.939-59.752-6.385-32.949-24.8-53.723-54.735-61.745-4.001-1.072-6.375-5.185-5.303-9.186 1.071-4.001 5.183-6.38 9.186-5.303 35.439 9.497 58.117 34.871 65.579 73.38 3.41 17.604 11.507 33.889 23.536 47.451l19.673-36.005-21.86-6.702c-3.961-1.215-6.187-5.409-4.973-9.369 1.216-3.96 5.413-6.186 9.369-4.973l93.9 28.792c33.153-36.388 32.836-92.563-.949-128.572h-192.225c-20.326 0-38.79 9.906-49.39 26.499-14.657 22.946-11.461 52.404 7.772 71.638z"/></g></svg>