<svg id="Capa_1" enable-background="new 0 0 512 512" height="512" viewBox="0 0 512 512" width="512" xmlns="http://www.w3.org/2000/svg"><g><g><path d="m453.253 87.636c-3.805-28.797-24.216-52.881-51.999-61.357l-79.445-24.237c-.048-.015-.095-.029-.143-.042-4.681-1.327-9.522-2-14.387-2h-102.559c-4.865 0-9.705.673-14.387 2-.048.014-.095.028-.143.042l-79.445 24.238c-27.783 8.476-48.193 32.56-51.993 61.314-1.272 9.222-31.151 226.31-31.151 266.245v142.236c0 8.781 7.144 15.925 15.924 15.925h424.948c8.781 0 15.924-7.144 15.924-15.925v-142.236c.001-39.935-29.877-257.023-31.144-266.203zm-334.303 189.328c2.032 1.67 4.164 3.219 6.372 4.663 6.761 10.392 10.278 22.391 10.165 34.804-.425 47.023-14.724 80.239-36.342 114.592zm-10.12 166.776c.01-.015.02-.03.028-.045 24.644-38.191 41.152-74.43 41.627-127.128.08-8.776-1.31-17.384-4.066-25.552 5.85 1.534 11.985 2.358 18.309 2.358h182.542c6.324 0 12.459-.824 18.309-2.358-2.757 8.168-4.146 16.777-4.067 25.553.478 52.717 16.998 88.965 41.656 127.171 1.501 2.326 2.89 4.873 4.196 7.544h-302.729c1.305-2.67 2.694-5.217 4.195-7.543zm267.682-127.308c-.112-12.412 3.405-24.412 10.165-34.804 2.208-1.444 4.341-2.993 6.373-4.663l19.805 154.06c-21.619-34.354-35.918-67.57-36.343-114.593zm-29.241-38.057h-182.542c-43.09 0-70.464-45.95-50.745-83.668 20.134-38.509 30.777-83.303 30.777-129.54v-33.584l41.572-12.683v23.161c0 38.415 31.252 69.667 69.667 69.667s69.667-31.252 69.667-69.667v-23.16l41.572 12.683v33.585c0 46.237 10.642 91.031 30.776 129.537 19.653 37.586-7.534 83.669-50.744 83.669zm-36.603-263.205v26.891c0 30.144-24.524 54.668-54.668 54.668s-54.668-24.524-54.668-54.668v-26.891c3.103-.28 106.711-.237 109.336 0zm-268.067 480.905v-142.236c0-38.913 30.7-261.947 31.016-264.238 3.037-22.986 19.329-42.21 41.505-48.975l14.64-4.466v29.008c0 43.826-10.052 86.217-29.07 122.591-12.032 23.014-11.127 52.02 4.978 74.881l-30.129 234.361h-32.015c-.51 0-.925-.415-.925-.926zm48.376.926c1.545-8.516 4.008-19.81 7.634-30.719h314.778c3.626 10.909 6.089 22.203 7.634 30.719zm378.422-.926c0 .511-.415.926-.926.926h-32.015l-30.128-234.362c16.1-22.854 17.014-51.864 4.977-74.883-19.017-36.371-29.069-78.761-29.069-122.588v-29.009l14.64 4.466c22.176 6.765 38.469 25.99 41.511 49.018.311 2.248 31.01 225.282 31.01 264.195z"/><path d="m256.005 398.488c-4.142 0-7.499 3.358-7.499 7.499v14.999c0 4.142 3.357 7.499 7.499 7.499s7.499-3.358 7.499-7.499v-14.999c0-4.141-3.357-7.499-7.499-7.499z"/></g></g></svg>